<svg width="228" height="65" viewBox="0 0 228 65" fill="none" xmlns="http://www.w3.org/2000/svg">
<g filter="url(#filter0_d_89_99853)">
<path d="M36.06 44H10.62V1.16H36.06V10.46H22.2V17.18H35.04V26.48H22.2V34.58H36.06V44ZM58.8497 17.06L66.2297 1.16H78.7697L64.6697 27.26V44H53.0297V27.62L38.9297 1.16H51.5297L58.8497 17.06ZM108.833 44H83.3934V1.16H108.833V10.46H94.9734V17.18H107.813V26.48H94.9734V34.58H108.833V44ZM144.343 30.98C144.343 33.3 143.743 35.5 142.543 37.58C141.383 39.66 139.563 41.36 137.083 42.68C134.643 43.96 131.463 44.6 127.543 44.6C125.583 44.6 123.863 44.5 122.383 44.3C120.943 44.14 119.583 43.86 118.303 43.46C117.023 43.06 115.703 42.54 114.343 41.9V31.58C116.663 32.74 119.003 33.64 121.363 34.28C123.723 34.88 125.863 35.18 127.783 35.18C128.943 35.18 129.883 35.04 130.603 34.76C131.323 34.48 131.863 34.1 132.223 33.62C132.583 33.14 132.763 32.6 132.763 32C132.763 31.24 132.503 30.6 131.983 30.08C131.463 29.56 130.643 29.02 129.523 28.46C128.403 27.9 126.903 27.2 125.023 26.36C123.423 25.64 121.983 24.88 120.703 24.08C119.423 23.28 118.323 22.38 117.403 21.38C116.523 20.38 115.843 19.22 115.363 17.9C114.883 16.54 114.643 14.94 114.643 13.1C114.643 10.34 115.323 8.04 116.683 6.2C118.043 4.32 119.923 2.92 122.323 2C124.763 1.04 127.583 0.559998 130.783 0.559998C133.583 0.559998 136.103 0.879998 138.343 1.52C140.583 2.12 142.583 2.82 144.343 3.62L140.803 12.56C138.963 11.72 137.143 11.06 135.343 10.58C133.583 10.06 131.943 9.8 130.423 9.8C129.423 9.8 128.603 9.92 127.963 10.16C127.323 10.4 126.843 10.74 126.523 11.18C126.243 11.58 126.103 12.04 126.103 12.56C126.103 13.24 126.363 13.84 126.883 14.36C127.403 14.88 128.263 15.46 129.463 16.1C130.703 16.7 132.383 17.48 134.503 18.44C136.583 19.36 138.343 20.38 139.783 21.5C141.263 22.58 142.383 23.88 143.143 25.4C143.943 26.88 144.343 28.74 144.343 30.98ZM165.232 10.22C168.472 10.22 171.252 10.78 173.572 11.9C175.932 13.02 177.732 14.7 178.972 16.94C180.252 19.18 180.892 22 180.892 25.4V30.5H160.432C160.512 32.22 161.152 33.64 162.352 34.76C163.592 35.88 165.372 36.44 167.692 36.44C169.772 36.44 171.672 36.24 173.392 35.84C175.112 35.44 176.892 34.8 178.732 33.92V42.14C177.132 42.98 175.372 43.6 173.452 44C171.572 44.4 169.192 44.6 166.312 44.6C162.952 44.6 159.952 44.02 157.312 42.86C154.712 41.66 152.652 39.8 151.132 37.28C149.612 34.76 148.852 31.54 148.852 27.62C148.852 23.62 149.532 20.34 150.892 17.78C152.292 15.22 154.212 13.32 156.652 12.08C159.132 10.84 161.992 10.22 165.232 10.22ZM165.652 18.02C164.292 18.02 163.152 18.44 162.232 19.28C161.352 20.12 160.832 21.46 160.672 23.3H170.512C170.512 22.3 170.312 21.42 169.912 20.66C169.552 19.86 169.012 19.22 168.292 18.74C167.572 18.26 166.692 18.02 165.652 18.02ZM202.322 10.22C205.562 10.22 208.342 10.78 210.662 11.9C213.022 13.02 214.822 14.7 216.062 16.94C217.342 19.18 217.982 22 217.982 25.4V30.5H197.522C197.602 32.22 198.242 33.64 199.442 34.76C200.682 35.88 202.462 36.44 204.782 36.44C206.862 36.44 208.762 36.24 210.482 35.84C212.202 35.44 213.982 34.8 215.822 33.92V42.14C214.222 42.98 212.462 43.6 210.542 44C208.662 44.4 206.282 44.6 203.402 44.6C200.042 44.6 197.042 44.02 194.402 42.86C191.802 41.66 189.742 39.8 188.222 37.28C186.702 34.76 185.942 31.54 185.942 27.62C185.942 23.62 186.622 20.34 187.982 17.78C189.382 15.22 191.302 13.32 193.742 12.08C196.222 10.84 199.082 10.22 202.322 10.22ZM202.742 18.02C201.382 18.02 200.242 18.44 199.322 19.28C198.442 20.12 197.922 21.46 197.762 23.3H207.602C207.602 22.3 207.402 21.42 207.002 20.66C206.642 19.86 206.102 19.22 205.382 18.74C204.662 18.26 203.782 18.02 202.742 18.02Z" fill="url(#paint0_linear_89_99853)"/>
</g>
<defs>
<filter id="filter0_d_89_99853" x="0.619995" y="0.560059" width="227.362" height="64.04" filterUnits="userSpaceOnUse" color-interpolation-filters="sRGB">
<feFlood flood-opacity="0" result="BackgroundImageFix"/>
<feColorMatrix in="SourceAlpha" type="matrix" values="0 0 0 0 0 0 0 0 0 0 0 0 0 0 0 0 0 0 127 0" result="hardAlpha"/>
<feOffset dy="10"/>
<feGaussianBlur stdDeviation="5"/>
<feComposite in2="hardAlpha" operator="out"/>
<feColorMatrix type="matrix" values="0 0 0 0 0 0 0 0 0 0 0 0 0 0 0 0 0 0 0.8 0"/>
<feBlend mode="normal" in2="BackgroundImageFix" result="effect1_dropShadow_89_99853"/>
<feBlend mode="normal" in="SourceGraphic" in2="effect1_dropShadow_89_99853" result="shape"/>
</filter>
<linearGradient id="paint0_linear_89_99853" x1="6" y1="21" x2="221" y2="21" gradientUnits="userSpaceOnUse">
<stop stop-color="#8C8C8C"/>
<stop offset="1" stop-color="white"/>
</linearGradient>
</defs>
</svg>
