<svg width="276" height="230" viewBox="0 0 276 230" fill="none" xmlns="http://www.w3.org/2000/svg">
<path d="M4.2 29V0.999998H6.92V29H4.2ZM39.685 0.999998V29H36.965V3.32H36.725L27.045 21.88H25.805L14.805 5.52H14.565L15.445 29H12.725L13.725 0.439998H14.525L27.125 19.16H27.365L36.805 0.999998H39.685ZM46.0828 29V0.999998H51.0828C54.3095 0.999998 56.8161 1.69333 58.6028 3.08C60.3895 4.44 61.2828 6.34667 61.2828 8.8C61.2828 11.2533 60.3895 13.1733 58.6028 14.56C56.8161 15.92 54.3095 16.6 51.0828 16.6H48.8028V29H46.0828ZM51.0828 1.96H48.8028V15.64H51.0828C55.9628 15.64 58.4028 13.36 58.4028 8.8C58.4028 4.24 55.9628 1.96 51.0828 1.96ZM64.8953 0.999998H70.2553C73.082 0.999998 75.2686 1.6 76.8153 2.8C78.3886 3.97333 79.1753 5.62667 79.1753 7.76C79.1753 9.41333 78.682 10.7867 77.6953 11.88C76.7353 12.9733 75.3353 13.7067 73.4953 14.08V14.32C75.2553 14.6667 76.6953 15.4933 77.8153 16.8C78.9353 18.1067 79.7753 19.72 80.3353 21.64C80.842 23.4 81.3353 24.7733 81.8153 25.76C82.322 26.72 82.8686 27.4133 83.4553 27.84C84.0686 28.2667 84.7886 28.5733 85.6153 28.76V29H83.9753C82.802 29 81.8286 28.7867 81.0553 28.36C80.3086 27.9333 79.6686 27.2133 79.1353 26.2C78.602 25.1867 78.0953 23.7867 77.6153 22C76.842 19.2533 75.8153 17.3067 74.5353 16.16C73.2553 15.0133 71.6953 14.44 69.8553 14.44H69.6153V13.72H69.8553C74.1486 13.72 76.2953 11.7467 76.2953 7.8C76.2953 3.90666 74.282 1.96 70.2553 1.96H67.6153V29H64.8953V0.999998ZM83.7781 15C83.7781 12.9467 84.1381 11.04 84.8581 9.28C85.6048 7.49333 86.6315 5.94667 87.9381 4.64C89.2715 3.30667 90.8181 2.28 92.5781 1.56C94.3648 0.813331 96.2848 0.439998 98.3381 0.439998C100.391 0.439998 102.298 0.813331 104.058 1.56C105.845 2.28 107.391 3.30667 108.698 4.64C110.031 5.94667 111.058 7.49333 111.778 9.28C112.525 11.04 112.898 12.9467 112.898 15C112.898 17.0533 112.525 18.9733 111.778 20.76C111.058 22.52 110.031 24.0667 108.698 25.4C107.391 26.7067 105.845 27.7333 104.058 28.48C102.298 29.2 100.391 29.56 98.3381 29.56C96.2848 29.56 94.3648 29.2 92.5781 28.48C90.8181 27.7333 89.2715 26.7067 87.9381 25.4C86.6315 24.0667 85.6048 22.52 84.8581 20.76C84.1381 18.9733 83.7781 17.0533 83.7781 15ZM86.8181 15C86.8181 17.72 87.2981 20.1067 88.2581 22.16C89.2181 24.1867 90.5648 25.7733 92.2981 26.92C94.0315 28.04 96.0448 28.6 98.3381 28.6C100.631 28.6 102.645 28.04 104.378 26.92C106.111 25.7733 107.458 24.1733 108.418 22.12C109.378 20.0667 109.858 17.6933 109.858 15C109.858 12.3067 109.378 9.94667 108.418 7.92C107.458 5.86667 106.111 4.26667 104.378 3.12C102.645 1.97333 100.631 1.4 98.3381 1.4C96.0448 1.4 94.0315 1.97333 92.2981 3.12C90.5915 4.24 89.2448 5.82667 88.2581 7.88C87.2981 9.90667 86.8181 12.28 86.8181 15ZM112.975 0.999998H115.975L126.895 25.88H127.135L136.295 0.999998H139.295L126.575 29.56H125.695L112.975 0.999998ZM141.528 29V0.999998H153.728V2.96L146.728 2.04C145.501 1.88 144.675 1.8 144.248 1.8V14C144.595 14 145.421 13.96 146.728 13.88L153.288 13.48V15.32L146.728 14.92C145.421 14.84 144.595 14.8 144.248 14.8V28.2C144.728 28.2 145.568 28.12 146.768 27.96L153.848 27.04V29H141.528ZM10.6 79V51.8C10.2 51.8 9.37333 51.88 8.12 52.04L0.28 53.04V51H23.64V53.04L15.8 52.04C14.5467 51.88 13.72 51.8 13.32 51.8V79H10.6ZM26.1375 79V51H28.8575V63.96H45.6575V51H48.3775V79H45.6575V64.92H28.8575V79H26.1375ZM54.7938 79V51H66.9938V52.96L59.9938 52.04C58.7671 51.88 57.9404 51.8 57.5138 51.8V64C57.8604 64 58.6871 63.96 59.9938 63.88L66.5538 63.48V65.32L59.9938 64.92C58.6871 64.84 57.8604 64.8 57.5138 64.8V78.2C57.9938 78.2 58.8338 78.12 60.0338 77.96L67.1138 77.04V79H54.7938ZM76.2781 65C76.2781 62.9467 76.6381 61.04 77.3581 59.28C78.1048 57.4933 79.1315 55.9467 80.4381 54.64C81.7715 53.3067 83.3181 52.28 85.0781 51.56C86.8648 50.8133 88.7848 50.44 90.8381 50.44C92.8915 50.44 94.7981 50.8133 96.5581 51.56C98.3448 52.28 99.8915 53.3067 101.198 54.64C102.531 55.9467 103.558 57.4933 104.278 59.28C105.025 61.04 105.398 62.9467 105.398 65C105.398 67.0267 105.038 68.9067 104.318 70.64C103.625 72.3733 102.638 73.9067 101.358 75.24C100.078 76.5467 98.5848 77.5733 96.8781 78.32V78.56C98.1581 78.56 99.2381 78.7067 100.118 79C100.998 79.2933 101.785 79.76 102.478 80.4C103.198 81.04 103.891 81.8667 104.558 82.88C105.385 84.1067 106.105 85.0533 106.718 85.72C107.358 86.4133 108.198 86.9067 109.238 87.2V87.44H107.358C106.318 87.44 105.478 87.28 104.838 86.96C104.198 86.64 103.665 86.2133 103.238 85.68C102.838 85.1467 102.438 84.5867 102.038 84C101.585 83.28 101.078 82.5733 100.518 81.88C99.9581 81.2133 99.2781 80.6533 98.4781 80.2C97.7048 79.7733 96.7048 79.56 95.4781 79.56H90.8381C88.7848 79.56 86.8648 79.2 85.0781 78.48C83.3181 77.7333 81.7715 76.7067 80.4381 75.4C79.1315 74.0667 78.1048 72.52 77.3581 70.76C76.6381 68.9733 76.2781 67.0533 76.2781 65ZM79.3181 65C79.3181 67.72 79.7981 70.1067 80.7581 72.16C81.7181 74.1867 83.0648 75.7733 84.7981 76.92C86.5315 78.04 88.5448 78.6 90.8381 78.6C93.1315 78.6 95.1448 78.04 96.8781 76.92C98.6115 75.7733 99.9581 74.1733 100.918 72.12C101.878 70.0667 102.358 67.6933 102.358 65C102.358 62.3067 101.878 59.9467 100.918 57.92C99.9581 55.8667 98.6115 54.2667 96.8781 53.12C95.1448 51.9733 93.1315 51.4 90.8381 51.4C88.5448 51.4 86.5315 51.9733 84.7981 53.12C83.0915 54.24 81.7448 55.8267 80.7581 57.88C79.7981 59.9067 79.3181 62.28 79.3181 65ZM109.386 51H112.106V67.88C112.106 71.1067 112.893 73.6267 114.466 75.44C116.066 77.2267 118.306 78.12 121.186 78.12C122.999 78.12 124.573 77.7733 125.906 77.08C127.266 76.36 128.306 75.3733 129.026 74.12C129.773 72.8667 130.119 71.4267 130.066 69.8L129.386 51H132.106L131.426 69.8C131.319 73 130.359 75.4267 128.546 77.08C126.759 78.7333 124.199 79.56 120.866 79.56C117.266 79.56 114.453 78.52 112.426 76.44C110.399 74.3333 109.386 71.4533 109.386 67.8V51ZM132.759 79L143.519 51H145.999L156.759 79H153.839L148.879 65.88H139.799L135.679 79H132.759ZM143.799 53.08L140.079 64.92H148.519L144.039 53.08H143.799ZM159.247 51H161.967V78.2C162.474 78.2 163.274 78.12 164.367 77.96L171.007 76.96V79H159.247V51ZM173.684 79V51H176.404V79H173.684ZM189.209 79V51.8C188.809 51.8 187.983 51.88 186.729 52.04L178.889 53.04V51H202.249V53.04L194.409 52.04C193.156 51.88 192.329 51.8 191.929 51.8V79H189.209ZM210.747 79V67.16L200.827 51H203.867L212.787 65.64H213.027L220.147 51H223.187L213.627 66.6V79H210.747ZM230.216 65C230.216 62.9467 230.576 61.04 231.296 59.28C232.042 57.4933 233.069 55.9467 234.376 54.64C235.709 53.3067 237.256 52.28 239.016 51.56C240.802 50.8133 242.722 50.44 244.776 50.44C246.829 50.44 248.736 50.8133 250.496 51.56C252.282 52.28 253.829 53.3067 255.136 54.64C256.469 55.9467 257.496 57.4933 258.216 59.28C258.962 61.04 259.336 62.9467 259.336 65C259.336 67.0533 258.962 68.9733 258.216 70.76C257.496 72.52 256.469 74.0667 255.136 75.4C253.829 76.7067 252.282 77.7333 250.496 78.48C248.736 79.2 246.829 79.56 244.776 79.56C242.722 79.56 240.802 79.2 239.016 78.48C237.256 77.7333 235.709 76.7067 234.376 75.4C233.069 74.0667 232.042 72.52 231.296 70.76C230.576 68.9733 230.216 67.0533 230.216 65ZM233.256 65C233.256 67.72 233.736 70.1067 234.696 72.16C235.656 74.1867 237.002 75.7733 238.736 76.92C240.469 78.04 242.482 78.6 244.776 78.6C247.069 78.6 249.082 78.04 250.816 76.92C252.549 75.7733 253.896 74.1733 254.856 72.12C255.816 70.0667 256.296 67.6933 256.296 65C256.296 62.3067 255.816 59.9467 254.856 57.92C253.896 55.8667 252.549 54.2667 250.816 53.12C249.082 51.9733 247.069 51.4 244.776 51.4C242.482 51.4 240.469 51.9733 238.736 53.12C237.029 54.24 235.682 55.8267 234.696 57.88C233.736 59.9067 233.256 62.28 233.256 65ZM263.723 79V51H275.483V52.96L268.843 52.04C267.643 51.88 266.843 51.8 266.443 51.8V64.32C266.87 64.32 267.697 64.28 268.923 64.2L275.043 63.8V65.64L268.923 65.24C267.697 65.16 266.87 65.12 266.443 65.12V79H263.723ZM10.2 129V117.16L0.28 101H3.32L12.24 115.64H12.48L19.6 101H22.64L13.08 116.6V129H10.2ZM21.5203 115C21.5203 112.947 21.8803 111.04 22.6003 109.28C23.347 107.493 24.3736 105.947 25.6803 104.64C27.0136 103.307 28.5603 102.28 30.3203 101.56C32.107 100.813 34.027 100.44 36.0803 100.44C38.1336 100.44 40.0403 100.813 41.8003 101.56C43.587 102.28 45.1336 103.307 46.4403 104.64C47.7736 105.947 48.8003 107.493 49.5203 109.28C50.267 111.04 50.6403 112.947 50.6403 115C50.6403 117.053 50.267 118.973 49.5203 120.76C48.8003 122.52 47.7736 124.067 46.4403 125.4C45.1336 126.707 43.587 127.733 41.8003 128.48C40.0403 129.2 38.1336 129.56 36.0803 129.56C34.027 129.56 32.107 129.2 30.3203 128.48C28.5603 127.733 27.0136 126.707 25.6803 125.4C24.3736 124.067 23.347 122.52 22.6003 120.76C21.8803 118.973 21.5203 117.053 21.5203 115ZM24.5603 115C24.5603 117.72 25.0403 120.107 26.0003 122.16C26.9603 124.187 28.307 125.773 30.0403 126.92C31.7736 128.04 33.787 128.6 36.0803 128.6C38.3736 128.6 40.387 128.04 42.1203 126.92C43.8536 125.773 45.2003 124.173 46.1603 122.12C47.1203 120.067 47.6003 117.693 47.6003 115C47.6003 112.307 47.1203 109.947 46.1603 107.92C45.2003 105.867 43.8536 104.267 42.1203 103.12C40.387 101.973 38.3736 101.4 36.0803 101.4C33.787 101.4 31.7736 101.973 30.0403 103.12C28.3336 104.24 26.987 105.827 26.0003 107.88C25.0403 109.907 24.5603 112.28 24.5603 115ZM54.6281 101H57.3481V117.88C57.3481 121.107 58.1348 123.627 59.7081 125.44C61.3081 127.227 63.5481 128.12 66.4281 128.12C68.2415 128.12 69.8148 127.773 71.1481 127.08C72.5081 126.36 73.5481 125.373 74.2681 124.12C75.0148 122.867 75.3615 121.427 75.3081 119.8L74.6281 101H77.3481L76.6681 119.8C76.5615 123 75.6015 125.427 73.7881 127.08C72.0015 128.733 69.4415 129.56 66.1081 129.56C62.5081 129.56 59.6948 128.52 57.6681 126.44C55.6415 124.333 54.6281 121.453 54.6281 117.8V101ZM82.9422 101H88.3022C91.1289 101 93.3155 101.6 94.8622 102.8C96.4355 103.973 97.2222 105.627 97.2222 107.76C97.2222 109.413 96.7289 110.787 95.7422 111.88C94.7822 112.973 93.3822 113.707 91.5422 114.08V114.32C93.3022 114.667 94.7422 115.493 95.8622 116.8C96.9822 118.107 97.8222 119.72 98.3822 121.64C98.8889 123.4 99.3822 124.773 99.8622 125.76C100.369 126.72 100.916 127.413 101.502 127.84C102.116 128.267 102.836 128.573 103.662 128.76V129H102.022C100.849 129 99.8755 128.787 99.1022 128.36C98.3555 127.933 97.7155 127.213 97.1822 126.2C96.6489 125.187 96.1422 123.787 95.6622 122C94.8889 119.253 93.8622 117.307 92.5822 116.16C91.3022 115.013 89.7422 114.44 87.9022 114.44H87.6622V113.72H87.9022C92.1955 113.72 94.3422 111.747 94.3422 107.8C94.3422 103.907 92.3289 101.96 88.3022 101.96H85.6622V129H82.9422V101ZM10.6 179V151.8C10.2 151.8 9.37333 151.88 8.12 152.04L0.28 153.04V151H23.64V153.04L15.8 152.04C14.5467 151.88 13.72 151.8 13.32 151.8V179H10.6ZM26.1375 179V151H38.3375V152.96L31.3375 152.04C30.1108 151.88 29.2842 151.8 28.8575 151.8V164C29.2042 164 30.0308 163.96 31.3375 163.88L37.8975 163.48V165.32L31.3375 164.92C30.0308 164.84 29.2042 164.8 28.8575 164.8V178.2C29.3375 178.2 30.1775 178.12 31.3775 177.96L38.4575 177.04V179H26.1375ZM40.4006 178.12L40.6406 175.72H40.8806C41.9206 176.627 43.094 177.333 44.4006 177.84C45.7073 178.347 47.0006 178.6 48.2806 178.6C50.094 178.6 51.5606 178.107 52.6806 177.12C53.8006 176.107 54.3606 174.76 54.3606 173.08C54.3606 172.147 54.1473 171.28 53.7206 170.48C53.3206 169.68 52.6406 168.867 51.6806 168.04C50.7473 167.213 49.454 166.32 47.8006 165.36C46.654 164.693 45.5606 164 44.5206 163.28C43.4806 162.533 42.6273 161.68 41.9606 160.72C41.294 159.733 40.9606 158.56 40.9606 157.2C40.9606 155.173 41.694 153.547 43.1606 152.32C44.6273 151.067 46.5606 150.44 48.9606 150.44C50.0273 150.44 51.174 150.56 52.4006 150.8C53.6273 151.013 54.574 151.293 55.2406 151.64L55.0406 153.88H54.8006C53.2806 152.227 51.334 151.4 48.9606 151.4C47.254 151.4 45.8806 151.84 44.8406 152.72C43.8006 153.573 43.2806 154.733 43.2806 156.2C43.2806 157.293 43.5606 158.24 44.1206 159.04C44.7073 159.813 45.454 160.52 46.3606 161.16C47.2673 161.773 48.2406 162.373 49.2806 162.96C50.4806 163.653 51.6406 164.387 52.7606 165.16C53.9073 165.933 54.8406 166.867 55.5606 167.96C56.3073 169.027 56.6806 170.373 56.6806 172C56.6806 173.493 56.334 174.813 55.6406 175.96C54.9473 177.08 53.9606 177.96 52.6806 178.6C51.4273 179.24 49.9606 179.56 48.2806 179.56C47.214 179.56 45.9606 179.427 44.5206 179.16C43.0806 178.893 41.7073 178.547 40.4006 178.12ZM66.1781 179V151.8C65.7781 151.8 64.9515 151.88 63.6981 152.04L55.8581 153.04V151H79.2181V153.04L71.3781 152.04C70.1248 151.88 69.2981 151.8 68.8981 151.8V179H66.1781ZM81.7156 179V151H84.4356V179H81.7156ZM90.2406 179L91.2406 150.44H91.7206L111.841 174.76H112.081L111.201 151H113.921L112.921 179.56H112.441L92.3206 155.24H92.0806L92.9606 179H90.2406ZM133.691 165.72V164.76H143.811V175.64C142.585 176.867 141.078 177.827 139.291 178.52C137.531 179.213 135.558 179.56 133.371 179.56C131.131 179.56 129.065 179.2 127.171 178.48C125.278 177.733 123.625 176.707 122.211 175.4C120.798 174.067 119.691 172.52 118.891 170.76C118.118 169 117.731 167.08 117.731 165C117.731 162.92 118.118 161 118.891 159.24C119.691 157.48 120.798 155.947 122.211 154.64C123.625 153.307 125.278 152.28 127.171 151.56C129.065 150.813 131.131 150.44 133.371 150.44C134.331 150.44 135.371 150.507 136.491 150.64C137.638 150.773 138.731 150.96 139.771 151.2C140.811 151.413 141.691 151.68 142.411 152L142.211 154.24H141.971C140.905 153.307 139.625 152.6 138.131 152.12C136.638 151.64 135.051 151.4 133.371 151.4C130.865 151.4 128.665 151.973 126.771 153.12C124.878 154.24 123.398 155.827 122.331 157.88C121.291 159.907 120.771 162.28 120.771 165C120.771 167.72 121.291 170.107 122.331 172.16C123.398 174.187 124.878 175.773 126.771 176.92C128.665 178.04 130.865 178.6 133.371 178.6C134.918 178.6 136.345 178.387 137.651 177.96C138.985 177.533 140.131 176.92 141.091 176.12V165.72H133.691ZM4.2 229V201H16.4V202.96L9.4 202.04C8.17333 201.88 7.34667 201.8 6.92 201.8V214C7.26667 214 8.09333 213.96 9.4 213.88L15.96 213.48V215.32L9.4 214.92C8.09333 214.84 7.26667 214.8 6.92 214.8V228.2C7.4 228.2 8.24 228.12 9.44 227.96L16.52 227.04V229H4.2ZM16.9831 229L27.3031 215.04L17.7831 201H20.9831L28.8631 212.64H29.1031L35.9431 201H39.1431L29.5431 213.68L39.9431 229H36.7431L27.9831 216.08H27.7431L20.1831 229H16.9831ZM42.1766 229V201H47.1766C50.4032 201 52.9099 201.693 54.6966 203.08C56.4832 204.44 57.3766 206.347 57.3766 208.8C57.3766 211.253 56.4832 213.173 54.6966 214.56C52.9099 215.92 50.4032 216.6 47.1766 216.6H44.8966V229H42.1766ZM47.1766 201.96H44.8966V215.64H47.1766C52.0566 215.64 54.4966 213.36 54.4966 208.8C54.4966 204.24 52.0566 201.96 47.1766 201.96ZM60.9891 229V201H73.1891V202.96L66.1891 202.04C64.9624 201.88 64.1357 201.8 63.7091 201.8V214C64.0557 214 64.8824 213.96 66.1891 213.88L72.7491 213.48V215.32L66.1891 214.92C64.8824 214.84 64.0557 214.8 63.7091 214.8V228.2C64.1891 228.2 65.0291 228.12 66.2291 227.96L73.3091 227.04V229H60.9891ZM77.6922 201H83.0522C85.8789 201 88.0655 201.6 89.6122 202.8C91.1855 203.973 91.9722 205.627 91.9722 207.76C91.9722 209.413 91.4789 210.787 90.4922 211.88C89.5322 212.973 88.1322 213.707 86.2922 214.08V214.32C88.0522 214.667 89.4922 215.493 90.6122 216.8C91.7322 218.107 92.5722 219.72 93.1322 221.64C93.6389 223.4 94.1322 224.773 94.6122 225.76C95.1189 226.72 95.6655 227.413 96.2522 227.84C96.8655 228.267 97.5855 228.573 98.4122 228.76V229H96.7722C95.5989 229 94.6255 228.787 93.8522 228.36C93.1055 227.933 92.4655 227.213 91.9322 226.2C91.3989 225.187 90.8922 223.787 90.4122 222C89.6389 219.253 88.6122 217.307 87.3322 216.16C86.0522 215.013 84.4922 214.44 82.6522 214.44H82.4122V213.72H82.6522C86.9455 213.72 89.0922 211.747 89.0922 207.8C89.0922 203.907 87.0789 201.96 83.0522 201.96H80.4122V229H77.6922V201ZM99.3563 229V201H102.076V229H99.3563ZM108.481 229V201H120.681V202.96L113.681 202.04C112.455 201.88 111.628 201.8 111.201 201.8V214C111.548 214 112.375 213.96 113.681 213.88L120.241 213.48V215.32L113.681 214.92C112.375 214.84 111.548 214.8 111.201 214.8V228.2C111.681 228.2 112.521 228.12 113.721 227.96L120.801 227.04V229H108.481ZM124.584 229L125.584 200.44H126.064L146.184 224.76H146.424L145.544 201H148.264L147.264 229.56H146.784L126.664 205.24H126.424L127.304 229H124.584ZM176.395 225.56L176.155 228C175.408 228.32 174.502 228.6 173.435 228.84C172.368 229.08 171.288 229.253 170.195 229.36C169.102 229.493 168.128 229.56 167.275 229.56C165.115 229.56 163.115 229.2 161.275 228.48C159.435 227.733 157.822 226.707 156.435 225.4C155.075 224.093 154.008 222.56 153.235 220.8C152.462 219.013 152.075 217.08 152.075 215C152.075 212.92 152.462 211 153.235 209.24C154.008 207.453 155.075 205.907 156.435 204.6C157.822 203.293 159.435 202.28 161.275 201.56C163.115 200.813 165.115 200.44 167.275 200.44C168.155 200.44 169.142 200.507 170.235 200.64C171.328 200.773 172.395 200.96 173.435 201.2C174.475 201.413 175.355 201.667 176.075 201.96L175.875 204.2H175.635C174.648 203.293 173.408 202.6 171.915 202.12C170.422 201.64 168.875 201.4 167.275 201.4C164.875 201.4 162.755 201.973 160.915 203.12C159.102 204.24 157.675 205.827 156.635 207.88C155.622 209.907 155.115 212.28 155.115 215C155.115 217.747 155.622 220.133 156.635 222.16C157.675 224.187 159.102 225.773 160.915 226.92C162.728 228.04 164.848 228.6 167.275 228.6C169.088 228.6 170.768 228.307 172.315 227.72C173.888 227.133 175.168 226.413 176.155 225.56H176.395ZM180.388 229V201H192.588V202.96L185.588 202.04C184.361 201.88 183.534 201.8 183.108 201.8V214C183.454 214 184.281 213.96 185.588 213.88L192.148 213.48V215.32L185.588 214.92C184.281 214.84 183.454 214.8 183.108 214.8V228.2C183.588 228.2 184.428 228.12 185.628 227.96L192.708 227.04V229H180.388ZM195.091 227.32C195.091 226.707 195.291 226.213 195.691 225.84C196.091 225.44 196.584 225.24 197.171 225.24C197.784 225.24 198.277 225.44 198.651 225.84C199.051 226.213 199.251 226.707 199.251 227.32C199.251 227.907 199.051 228.4 198.651 228.8C198.277 229.2 197.784 229.4 197.171 229.4C196.584 229.4 196.091 229.2 195.691 228.8C195.291 228.4 195.091 227.907 195.091 227.32Z" fill="white"/>
</svg>
