<svg width="159" height="50" viewBox="0 0 159 50" fill="none" xmlns="http://www.w3.org/2000/svg">
<g filter="url(#filter0_d_14_1554)">
<path d="M27.04 29H10.08V0.439998H27.04V6.64H17.8V11.12H26.36V17.32H17.8V22.72H27.04V29ZM42.2331 11.04L47.1531 0.439998H55.5131L46.1131 17.84V29H38.3531V18.08L28.9531 0.439998H37.3531L42.2331 11.04ZM75.5556 29H58.5956V0.439998H75.5556V6.64H66.3156V11.12H74.8756V17.32H66.3156V22.72H75.5556V29ZM99.2288 20.32C99.2288 21.8667 98.8288 23.3333 98.0287 24.72C97.2554 26.1067 96.0421 27.24 94.3888 28.12C92.7621 28.9733 90.6421 29.4 88.0287 29.4C86.7221 29.4 85.5754 29.3333 84.5888 29.2C83.6288 29.0933 82.7221 28.9067 81.8688 28.64C81.0154 28.3733 80.1354 28.0267 79.2288 27.6V20.72C80.7754 21.4933 82.3354 22.0933 83.9088 22.52C85.4821 22.92 86.9088 23.12 88.1888 23.12C88.9621 23.12 89.5888 23.0267 90.0688 22.84C90.5488 22.6533 90.9088 22.4 91.1488 22.08C91.3888 21.76 91.5088 21.4 91.5088 21C91.5088 20.4933 91.3354 20.0667 90.9888 19.72C90.6421 19.3733 90.0954 19.0133 89.3488 18.64C88.6021 18.2667 87.6021 17.8 86.3488 17.24C85.2821 16.76 84.3221 16.2533 83.4688 15.72C82.6154 15.1867 81.8821 14.5867 81.2688 13.92C80.6821 13.2533 80.2288 12.48 79.9088 11.6C79.5888 10.6933 79.4288 9.62667 79.4288 8.4C79.4288 6.56 79.8821 5.02666 80.7888 3.8C81.6954 2.54666 82.9488 1.61333 84.5488 0.999998C86.1754 0.359998 88.0554 0.0399985 90.1888 0.0399985C92.0554 0.0399985 93.7354 0.253332 95.2288 0.68C96.7221 1.08 98.0554 1.54667 99.2288 2.08L96.8688 8.04C95.6421 7.48 94.4288 7.04 93.2288 6.72C92.0554 6.37333 90.9621 6.2 89.9488 6.2C89.2821 6.2 88.7354 6.28 88.3088 6.44C87.8821 6.6 87.5621 6.82667 87.3488 7.12C87.1621 7.38667 87.0688 7.69333 87.0688 8.04C87.0688 8.49333 87.2421 8.89333 87.5888 9.24C87.9354 9.58667 88.5088 9.97333 89.3088 10.4C90.1354 10.8 91.2554 11.32 92.6688 11.96C94.0554 12.5733 95.2288 13.2533 96.1888 14C97.1754 14.72 97.9221 15.5867 98.4288 16.6C98.9621 17.5867 99.2288 18.8267 99.2288 20.32ZM113.155 6.48C115.315 6.48 117.168 6.85333 118.715 7.6C120.288 8.34667 121.488 9.46667 122.315 10.96C123.168 12.4533 123.595 14.3333 123.595 16.6V20H109.955C110.008 21.1467 110.435 22.0933 111.235 22.84C112.061 23.5867 113.248 23.96 114.795 23.96C116.181 23.96 117.448 23.8267 118.595 23.56C119.741 23.2933 120.928 22.8667 122.155 22.28V27.76C121.088 28.32 119.915 28.7333 118.635 29C117.381 29.2667 115.795 29.4 113.875 29.4C111.635 29.4 109.635 29.0133 107.875 28.24C106.141 27.44 104.768 26.2 103.755 24.52C102.741 22.84 102.235 20.6933 102.235 18.08C102.235 15.4133 102.688 13.2267 103.595 11.52C104.528 9.81333 105.808 8.54667 107.435 7.72C109.088 6.89333 110.995 6.48 113.155 6.48ZM113.435 11.68C112.528 11.68 111.768 11.96 111.155 12.52C110.568 13.08 110.221 13.9733 110.115 15.2H116.675C116.675 14.5333 116.541 13.9467 116.275 13.44C116.035 12.9067 115.675 12.48 115.195 12.16C114.715 11.84 114.128 11.68 113.435 11.68ZM137.881 6.48C140.041 6.48 141.895 6.85333 143.441 7.6C145.015 8.34667 146.215 9.46667 147.041 10.96C147.895 12.4533 148.321 14.3333 148.321 16.6V20H134.681C134.735 21.1467 135.161 22.0933 135.961 22.84C136.788 23.5867 137.975 23.96 139.521 23.96C140.908 23.96 142.175 23.8267 143.321 23.56C144.468 23.2933 145.655 22.8667 146.881 22.28V27.76C145.815 28.32 144.641 28.7333 143.361 29C142.108 29.2667 140.521 29.4 138.601 29.4C136.361 29.4 134.361 29.0133 132.601 28.24C130.868 27.44 129.495 26.2 128.481 24.52C127.468 22.84 126.961 20.6933 126.961 18.08C126.961 15.4133 127.415 13.2267 128.321 11.52C129.255 9.81333 130.535 8.54667 132.161 7.72C133.815 6.89333 135.721 6.48 137.881 6.48ZM138.161 11.68C137.255 11.68 136.495 11.96 135.881 12.52C135.295 13.08 134.948 13.9733 134.841 15.2H141.401C141.401 14.5333 141.268 13.9467 141.001 13.44C140.761 12.9067 140.401 12.48 139.921 12.16C139.441 11.84 138.855 11.68 138.161 11.68Z" fill="url(#paint0_linear_14_1554)"/>
</g>
<defs>
<filter id="filter0_d_14_1554" x="0.0800171" y="0.0400391" width="158.241" height="49.3604" filterUnits="userSpaceOnUse" color-interpolation-filters="sRGB">
<feFlood flood-opacity="0" result="BackgroundImageFix"/>
<feColorMatrix in="SourceAlpha" type="matrix" values="0 0 0 0 0 0 0 0 0 0 0 0 0 0 0 0 0 0 127 0" result="hardAlpha"/>
<feOffset dy="10"/>
<feGaussianBlur stdDeviation="5"/>
<feComposite in2="hardAlpha" operator="out"/>
<feColorMatrix type="matrix" values="0 0 0 0 0 0 0 0 0 0 0 0 0 0 0 0 0 0 0.8 0"/>
<feBlend mode="normal" in2="BackgroundImageFix" result="effect1_dropShadow_14_1554"/>
<feBlend mode="normal" in="SourceGraphic" in2="effect1_dropShadow_14_1554" result="shape"/>
</filter>
<linearGradient id="paint0_linear_14_1554" x1="7" y1="13" x2="151" y2="13" gradientUnits="userSpaceOnUse">
<stop stop-color="#8C8C8C"/>
<stop offset="1" stop-color="white"/>
</linearGradient>
</defs>
</svg>
