<svg xmlns="http://www.w3.org/2000/svg" width="24" height="24" viewBox="0 0 24 24" fill="none">
  <path fill-rule="evenodd" clip-rule="evenodd" d="M2.4 9.59961C2.4 9.28135 2.52643 8.97613 2.75147 8.75108C2.97652 8.52604 3.28174 8.39961 3.6 8.39961H15.9696C16.2879 8.39961 16.5931 8.52604 16.8181 8.75108C17.0432 8.97613 17.1696 9.28135 17.1696 9.59961C17.1696 9.91787 17.0432 10.2231 16.8181 10.4481C16.5931 10.6732 16.2879 10.7996 15.9696 10.7996H3.6C3.28174 10.7996 2.97652 10.6732 2.75147 10.4481C2.52643 10.2231 2.4 9.91787 2.4 9.59961ZM2.4 4.79961C2.4 4.48135 2.52643 4.17612 2.75147 3.95108C2.97652 3.72604 3.28174 3.59961 3.6 3.59961H20.4C20.7183 3.59961 21.0235 3.72604 21.2485 3.95108C21.4736 4.17612 21.6 4.48135 21.6 4.79961C21.6 5.11787 21.4736 5.42309 21.2485 5.64814C21.0235 5.87318 20.7183 5.99961 20.4 5.99961H3.6C3.28174 5.99961 2.97652 5.87318 2.75147 5.64814C2.52643 5.42309 2.4 5.11787 2.4 4.79961ZM2.4 14.3996C2.4 14.0814 2.52643 13.7761 2.75147 13.5511C2.97652 13.326 3.28174 13.1996 3.6 13.1996H20.4C20.7183 13.1996 21.0235 13.326 21.2485 13.5511C21.4736 13.7761 21.6 14.0814 21.6 14.3996C21.6 14.7179 21.4736 15.0231 21.2485 15.2481C21.0235 15.4732 20.7183 15.5996 20.4 15.5996H3.6C3.28174 15.5996 2.97652 15.4732 2.75147 15.2481C2.52643 15.0231 2.4 14.7179 2.4 14.3996ZM2.4 19.1996C2.4 18.8814 2.52643 18.5761 2.75147 18.3511C2.97652 18.126 3.28174 17.9996 3.6 17.9996H15.9696C16.2879 17.9996 16.5931 18.126 16.8181 18.3511C17.0432 18.5761 17.1696 18.8814 17.1696 19.1996C17.1696 19.5179 17.0432 19.8231 16.8181 20.0481C16.5931 20.2732 16.2879 20.3996 15.9696 20.3996H3.6C3.28174 20.3996 2.97652 20.2732 2.75147 20.0481C2.52643 19.8231 2.4 19.5179 2.4 19.1996Z" fill="#F8F8F8"/>
</svg>