<svg width="1145" height="254" viewBox="0 0 1145 254" fill="none" xmlns="http://www.w3.org/2000/svg">
<path d="M10 72V2H16.8V72H10ZM98.7125 2V72H91.9125V7.8H91.3125L67.1125 54.2H64.0125L36.5125 13.3H35.9125L38.1125 72H31.3125L33.8125 0.599995H35.8125L67.3125 47.4H67.9125L91.5125 2H98.7125ZM114.707 72V2H127.207C135.274 2 141.54 3.73333 146.007 7.2C150.474 10.6 152.707 15.3667 152.707 21.5C152.707 27.6333 150.474 32.4333 146.007 35.9C141.54 39.3 135.274 41 127.207 41H121.507V72H114.707ZM127.207 4.39999H121.507V38.6H127.207C139.407 38.6 145.507 32.9 145.507 21.5C145.507 10.1 139.407 4.39999 127.207 4.39999ZM161.738 2H175.138C182.205 2 187.672 3.5 191.538 6.5C195.472 9.43333 197.438 13.5667 197.438 18.9C197.438 23.0333 196.205 26.4667 193.738 29.2C191.338 31.9333 187.838 33.7667 183.238 34.7V35.3C187.638 36.1667 191.238 38.2333 194.038 41.5C196.838 44.7667 198.938 48.8 200.338 53.6C201.605 58 202.838 61.4333 204.038 63.9C205.305 66.3 206.672 68.0333 208.138 69.1C209.672 70.1667 211.472 70.9333 213.538 71.4V72H209.438C206.505 72 204.072 71.4667 202.138 70.4C200.272 69.3333 198.672 67.5333 197.338 65C196.005 62.4667 194.738 58.9667 193.538 54.5C191.605 47.6333 189.038 42.7667 185.838 39.9C182.638 37.0333 178.738 35.6 174.138 35.6H173.538V33.8H174.138C184.872 33.8 190.238 28.8667 190.238 19C190.238 9.26666 185.205 4.39999 175.138 4.39999H168.538V72H161.738V2ZM208.945 37C208.945 31.8667 209.845 27.1 211.645 22.7C213.512 18.2333 216.079 14.3667 219.345 11.1C222.679 7.76666 226.545 5.2 230.945 3.4C235.412 1.53333 240.212 0.599995 245.345 0.599995C250.479 0.599995 255.245 1.53333 259.645 3.4C264.112 5.2 267.979 7.76666 271.245 11.1C274.579 14.3667 277.145 18.2333 278.945 22.7C280.812 27.1 281.745 31.8667 281.745 37C281.745 42.1333 280.812 46.9333 278.945 51.4C277.145 55.8 274.579 59.6667 271.245 63C267.979 66.2667 264.112 68.8333 259.645 70.7C255.245 72.5 250.479 73.4 245.345 73.4C240.212 73.4 235.412 72.5 230.945 70.7C226.545 68.8333 222.679 66.2667 219.345 63C216.079 59.6667 213.512 55.8 211.645 51.4C209.845 46.9333 208.945 42.1333 208.945 37ZM216.545 37C216.545 43.8 217.745 49.7667 220.145 54.9C222.545 59.9667 225.912 63.9333 230.245 66.8C234.579 69.6 239.612 71 245.345 71C251.079 71 256.112 69.6 260.445 66.8C264.779 63.9333 268.145 59.9333 270.545 54.8C272.945 49.6667 274.145 43.7333 274.145 37C274.145 30.2667 272.945 24.3667 270.545 19.3C268.145 14.1667 264.779 10.1667 260.445 7.3C256.112 4.43333 251.079 2.99999 245.345 2.99999C239.612 2.99999 234.579 4.43333 230.245 7.3C225.979 10.1 222.612 14.0667 220.145 19.2C217.745 24.2667 216.545 30.2 216.545 37ZM281.938 2H289.438L316.738 64.2H317.338L340.238 2H347.738L315.938 73.4H313.738L281.938 2ZM353.32 72V2H383.82V6.9L366.32 4.6C363.254 4.2 361.187 4 360.12 4V34.5C360.987 34.5 363.054 34.4 366.32 34.2L382.72 33.2V37.8L366.32 36.8C363.054 36.6 360.987 36.5 360.12 36.5V70C361.32 70 363.42 69.8 366.42 69.4L384.12 67.1V72H353.32ZM26 162V94C25 94 22.9333 94.2 19.8 94.6L0.2 97.1V92H58.6V97.1L39 94.6C35.8667 94.2 33.8 94 32.8 94V162H26ZM64.8438 162V92H71.6438V124.4H113.644V92H120.444V162H113.644V126.8H71.6438V162H64.8438ZM136.484 162V92H166.984V96.9L149.484 94.6C146.418 94.2 144.351 94 143.284 94V124.5C144.151 124.5 146.218 124.4 149.484 124.2L165.884 123.2V127.8L149.484 126.8C146.218 126.6 144.151 126.5 143.284 126.5V160C144.484 160 146.584 159.8 149.584 159.4L167.284 157.1V162H136.484ZM190.195 127C190.195 121.867 191.095 117.1 192.895 112.7C194.762 108.233 197.329 104.367 200.595 101.1C203.929 97.7667 207.795 95.2 212.195 93.4C216.662 91.5333 221.462 90.6 226.595 90.6C231.729 90.6 236.495 91.5333 240.895 93.4C245.362 95.2 249.229 97.7667 252.495 101.1C255.829 104.367 258.395 108.233 260.195 112.7C262.062 117.1 262.995 121.867 262.995 127C262.995 132.067 262.095 136.767 260.295 141.1C258.562 145.433 256.095 149.267 252.895 152.6C249.695 155.867 245.962 158.433 241.695 160.3V160.9C244.895 160.9 247.595 161.267 249.795 162C251.995 162.733 253.962 163.9 255.695 165.5C257.495 167.1 259.229 169.167 260.895 171.7C262.962 174.767 264.762 177.133 266.295 178.8C267.895 180.533 269.995 181.767 272.595 182.5V183.1H267.895C265.295 183.1 263.195 182.7 261.595 181.9C259.995 181.1 258.662 180.033 257.595 178.7C256.595 177.367 255.595 175.967 254.595 174.5C253.462 172.7 252.195 170.933 250.795 169.2C249.395 167.533 247.695 166.133 245.695 165C243.762 163.933 241.262 163.4 238.195 163.4H226.595C221.462 163.4 216.662 162.5 212.195 160.7C207.795 158.833 203.929 156.267 200.595 153C197.329 149.667 194.762 145.8 192.895 141.4C191.095 136.933 190.195 132.133 190.195 127ZM197.795 127C197.795 133.8 198.995 139.767 201.395 144.9C203.795 149.967 207.162 153.933 211.495 156.8C215.829 159.6 220.862 161 226.595 161C232.329 161 237.362 159.6 241.695 156.8C246.029 153.933 249.395 149.933 251.795 144.8C254.195 139.667 255.395 133.733 255.395 127C255.395 120.267 254.195 114.367 251.795 109.3C249.395 104.167 246.029 100.167 241.695 97.3C237.362 94.4333 232.329 93 226.595 93C220.862 93 215.829 94.4333 211.495 97.3C207.229 100.1 203.862 104.067 201.395 109.2C198.995 114.267 197.795 120.2 197.795 127ZM272.965 92H279.765V134.2C279.765 142.267 281.732 148.567 285.665 153.1C289.665 157.567 295.265 159.8 302.465 159.8C306.998 159.8 310.932 158.933 314.265 157.2C317.665 155.4 320.265 152.933 322.065 149.8C323.932 146.667 324.798 143.067 324.665 139L322.965 92H329.765L328.065 139C327.798 147 325.398 153.067 320.865 157.2C316.398 161.333 309.998 163.4 301.665 163.4C292.665 163.4 285.632 160.8 280.565 155.6C275.498 150.333 272.965 143.133 272.965 134V92ZM331.397 162L358.297 92H364.497L391.397 162H384.097L371.697 129.2H348.997L338.697 162H331.397ZM358.997 97.2L349.697 126.8H370.797L359.597 97.2H358.997ZM397.617 92H404.417V160C405.684 160 407.684 159.8 410.417 159.4L427.017 156.9V162H397.617V92ZM433.711 162V92H440.511V162H433.711ZM472.523 162V94C471.523 94 469.457 94.2 466.323 94.6L446.723 97.1V92H505.123V97.1L485.523 94.6C482.39 94.2 480.323 94 479.323 94V162H472.523ZM526.367 162V132.4L501.567 92H509.167L531.467 128.6H532.067L549.867 92H557.467L533.567 131V162H526.367ZM575.039 127C575.039 121.867 575.939 117.1 577.739 112.7C579.606 108.233 582.172 104.367 585.439 101.1C588.772 97.7667 592.639 95.2 597.039 93.4C601.506 91.5333 606.306 90.6 611.439 90.6C616.572 90.6 621.339 91.5333 625.739 93.4C630.206 95.2 634.072 97.7667 637.339 101.1C640.672 104.367 643.239 108.233 645.039 112.7C646.906 117.1 647.839 121.867 647.839 127C647.839 132.133 646.906 136.933 645.039 141.4C643.239 145.8 640.672 149.667 637.339 153C634.072 156.267 630.206 158.833 625.739 160.7C621.339 162.5 616.572 163.4 611.439 163.4C606.306 163.4 601.506 162.5 597.039 160.7C592.639 158.833 588.772 156.267 585.439 153C582.172 149.667 579.606 145.8 577.739 141.4C575.939 136.933 575.039 132.133 575.039 127ZM582.639 127C582.639 133.8 583.839 139.767 586.239 144.9C588.639 149.967 592.006 153.933 596.339 156.8C600.672 159.6 605.706 161 611.439 161C617.172 161 622.206 159.6 626.539 156.8C630.872 153.933 634.239 149.933 636.639 144.8C639.039 139.667 640.239 133.733 640.239 127C640.239 120.267 639.039 114.367 636.639 109.3C634.239 104.167 630.872 100.167 626.539 97.3C622.206 94.4333 617.172 93 611.439 93C605.706 93 600.672 94.4333 596.339 97.3C592.072 100.1 588.706 104.067 586.239 109.2C583.839 114.267 582.639 120.2 582.639 127ZM658.809 162V92H688.209V96.9L671.609 94.6C668.609 94.2 666.609 94 665.609 94V125.3C666.675 125.3 668.742 125.2 671.809 125L687.109 124V128.6L671.809 127.6C668.742 127.4 666.675 127.3 665.609 127.3V162H658.809ZM25 252V222.4L0.2 182H7.8L30.1 218.6H30.7L48.5 182H56.1L32.2 221V252H25ZM53.3008 217C53.3008 211.867 54.2008 207.1 56.0008 202.7C57.8674 198.233 60.4341 194.367 63.7008 191.1C67.0341 187.767 70.9008 185.2 75.3008 183.4C79.7674 181.533 84.5675 180.6 89.7008 180.6C94.8341 180.6 99.6008 181.533 104.001 183.4C108.467 185.2 112.334 187.767 115.601 191.1C118.934 194.367 121.501 198.233 123.301 202.7C125.167 207.1 126.101 211.867 126.101 217C126.101 222.133 125.167 226.933 123.301 231.4C121.501 235.8 118.934 239.667 115.601 243C112.334 246.267 108.467 248.833 104.001 250.7C99.6008 252.5 94.8341 253.4 89.7008 253.4C84.5675 253.4 79.7674 252.5 75.3008 250.7C70.9008 248.833 67.0341 246.267 63.7008 243C60.4341 239.667 57.8674 235.8 56.0008 231.4C54.2008 226.933 53.3008 222.133 53.3008 217ZM60.9008 217C60.9008 223.8 62.1008 229.767 64.5008 234.9C66.9008 239.967 70.2674 243.933 74.6008 246.8C78.9341 249.6 83.9674 251 89.7008 251C95.4341 251 100.467 249.6 104.801 246.8C109.134 243.933 112.501 239.933 114.901 234.8C117.301 229.667 118.501 223.733 118.501 217C118.501 210.267 117.301 204.367 114.901 199.3C112.501 194.167 109.134 190.167 104.801 187.3C100.467 184.433 95.4341 183 89.7008 183C83.9674 183 78.9341 184.433 74.6008 187.3C70.3341 190.1 66.9674 194.067 64.5008 199.2C62.1008 204.267 60.9008 210.2 60.9008 217ZM136.07 182H142.87V224.2C142.87 232.267 144.837 238.567 148.77 243.1C152.77 247.567 158.37 249.8 165.57 249.8C170.104 249.8 174.037 248.933 177.37 247.2C180.77 245.4 183.37 242.933 185.17 239.8C187.037 236.667 187.904 233.067 187.77 229L186.07 182H192.87L191.17 229C190.904 237 188.504 243.067 183.97 247.2C179.504 251.333 173.104 253.4 164.77 253.4C155.77 253.4 148.737 250.8 143.67 245.6C138.604 240.333 136.07 233.133 136.07 224V182ZM206.855 182H220.255C227.322 182 232.789 183.5 236.655 186.5C240.589 189.433 242.555 193.567 242.555 198.9C242.555 203.033 241.322 206.467 238.855 209.2C236.455 211.933 232.955 213.767 228.355 214.7V215.3C232.755 216.167 236.355 218.233 239.155 221.5C241.955 224.767 244.055 228.8 245.455 233.6C246.722 238 247.955 241.433 249.155 243.9C250.422 246.3 251.789 248.033 253.255 249.1C254.789 250.167 256.589 250.933 258.655 251.4V252H254.555C251.622 252 249.189 251.467 247.255 250.4C245.389 249.333 243.789 247.533 242.455 245C241.122 242.467 239.855 238.967 238.655 234.5C236.722 227.633 234.155 222.767 230.955 219.9C227.755 217.033 223.855 215.6 219.255 215.6H218.655V213.8H219.255C229.989 213.8 235.355 208.867 235.355 199C235.355 189.267 230.322 184.4 220.255 184.4H213.655V252H206.855V182ZM293.969 252V184C292.969 184 290.902 184.2 287.769 184.6L268.169 187.1V182H326.569V187.1L306.969 184.6C303.835 184.2 301.769 184 300.769 184V252H293.969ZM332.813 252V182H363.313V186.9L345.813 184.6C342.746 184.2 340.679 184 339.613 184V214.5C340.479 214.5 342.546 214.4 345.813 214.2L362.213 213.2V217.8L345.813 216.8C342.546 216.6 340.479 216.5 339.613 216.5V250C340.813 250 342.913 249.8 345.913 249.4L363.613 247.1V252H332.813ZM368.47 249.8L369.07 243.8H369.67C372.27 246.067 375.204 247.833 378.47 249.1C381.737 250.367 384.97 251 388.17 251C392.704 251 396.37 249.767 399.17 247.3C401.97 244.767 403.37 241.4 403.37 237.2C403.37 234.867 402.837 232.7 401.77 230.7C400.77 228.7 399.07 226.667 396.67 224.6C394.337 222.533 391.104 220.3 386.97 217.9C384.104 216.233 381.37 214.5 378.77 212.7C376.17 210.833 374.037 208.7 372.37 206.3C370.704 203.833 369.87 200.9 369.87 197.5C369.87 192.433 371.704 188.367 375.37 185.3C379.037 182.167 383.87 180.6 389.87 180.6C392.537 180.6 395.404 180.9 398.47 181.5C401.537 182.033 403.904 182.733 405.57 183.6L405.07 189.2H404.47C400.67 185.067 395.804 183 389.87 183C385.604 183 382.17 184.1 379.57 186.3C376.97 188.433 375.67 191.333 375.67 195C375.67 197.733 376.37 200.1 377.77 202.1C379.237 204.033 381.104 205.8 383.37 207.4C385.637 208.933 388.07 210.433 390.67 211.9C393.67 213.633 396.57 215.467 399.37 217.4C402.237 219.333 404.57 221.667 406.37 224.4C408.237 227.067 409.17 230.433 409.17 234.5C409.17 238.233 408.304 241.533 406.57 244.4C404.837 247.2 402.37 249.4 399.17 251C396.037 252.6 392.37 253.4 388.17 253.4C385.504 253.4 382.37 253.067 378.77 252.4C375.17 251.733 371.737 250.867 368.47 249.8ZM432.914 252V184C431.914 184 429.847 184.2 426.714 184.6L407.114 187.1V182H465.514V187.1L445.914 184.6C442.781 184.2 440.714 184 439.714 184V252H432.914ZM471.758 252V182H478.558V252H471.758ZM493.07 252L495.57 180.6H496.77L547.07 241.4H547.67L545.47 182H552.27L549.77 253.4H548.57L498.27 192.6H497.67L499.87 252H493.07ZM601.697 218.8V216.4H626.997V243.6C623.93 246.667 620.164 249.067 615.697 250.8C611.297 252.533 606.364 253.4 600.897 253.4C595.297 253.4 590.13 252.5 585.397 250.7C580.664 248.833 576.53 246.267 572.997 243C569.464 239.667 566.697 235.8 564.697 231.4C562.764 227 561.797 222.2 561.797 217C561.797 211.8 562.764 207 564.697 202.6C566.697 198.2 569.464 194.367 572.997 191.1C576.53 187.767 580.664 185.2 585.397 183.4C590.13 181.533 595.297 180.6 600.897 180.6C603.297 180.6 605.897 180.767 608.697 181.1C611.564 181.433 614.297 181.9 616.897 182.5C619.497 183.033 621.697 183.7 623.497 184.5L622.997 190.1H622.397C619.73 187.767 616.53 186 612.797 184.8C609.064 183.6 605.097 183 600.897 183C594.63 183 589.13 184.433 584.397 187.3C579.664 190.1 575.964 194.067 573.297 199.2C570.697 204.267 569.397 210.2 569.397 217C569.397 223.8 570.697 229.767 573.297 234.9C575.964 239.967 579.664 243.933 584.397 246.8C589.13 249.6 594.63 251 600.897 251C604.764 251 608.33 250.467 611.597 249.4C614.93 248.333 617.797 246.8 620.197 244.8V218.8H601.697ZM656.953 252V182H687.453V186.9L669.953 184.6C666.886 184.2 664.82 184 663.753 184V214.5C664.62 214.5 666.686 214.4 669.953 214.2L686.353 213.2V217.8L669.953 216.8C666.686 216.6 664.62 216.5 663.753 216.5V250C664.953 250 667.053 249.8 670.053 249.4L687.753 247.1V252H656.953ZM688.911 252L714.711 217.1L690.911 182H698.911L718.611 211.1H719.211L736.311 182H744.311L720.311 213.7L746.311 252H738.311L716.411 219.7H715.811L696.911 252H688.911ZM751.895 252V182H764.395C772.461 182 778.728 183.733 783.195 187.2C787.661 190.6 789.895 195.367 789.895 201.5C789.895 207.633 787.661 212.433 783.195 215.9C778.728 219.3 772.461 221 764.395 221H758.695V252H751.895ZM764.395 184.4H758.695V218.6H764.395C776.595 218.6 782.695 212.9 782.695 201.5C782.695 190.1 776.595 184.4 764.395 184.4ZM798.926 252V182H829.426V186.9L811.926 184.6C808.859 184.2 806.792 184 805.726 184V214.5C806.592 214.5 808.659 214.4 811.926 214.2L828.326 213.2V217.8L811.926 216.8C808.659 216.6 806.592 216.5 805.726 216.5V250C806.926 250 809.026 249.8 812.026 249.4L829.726 247.1V252H798.926ZM840.684 182H854.084C861.15 182 866.617 183.5 870.484 186.5C874.417 189.433 876.384 193.567 876.384 198.9C876.384 203.033 875.15 206.467 872.684 209.2C870.284 211.933 866.784 213.767 862.184 214.7V215.3C866.584 216.167 870.184 218.233 872.984 221.5C875.784 224.767 877.884 228.8 879.284 233.6C880.55 238 881.784 241.433 882.984 243.9C884.25 246.3 885.617 248.033 887.084 249.1C888.617 250.167 890.417 250.933 892.484 251.4V252H888.384C885.45 252 883.017 251.467 881.084 250.4C879.217 249.333 877.617 247.533 876.284 245C874.95 242.467 873.684 238.967 872.484 234.5C870.55 227.633 867.984 222.767 864.784 219.9C861.584 217.033 857.684 215.6 853.084 215.6H852.484V213.8H853.084C863.817 213.8 869.184 208.867 869.184 199C869.184 189.267 864.15 184.4 854.084 184.4H847.484V252H840.684V182ZM894.844 252V182H901.644V252H894.844ZM917.656 252V182H948.156V186.9L930.656 184.6C927.59 184.2 925.523 184 924.456 184V214.5C925.323 214.5 927.39 214.4 930.656 214.2L947.056 213.2V217.8L930.656 216.8C927.39 216.6 925.323 216.5 924.456 216.5V250C925.656 250 927.756 249.8 930.756 249.4L948.456 247.1V252H917.656ZM957.914 252L960.414 180.6H961.614L1011.91 241.4H1012.51L1010.31 182H1017.11L1014.61 253.4H1013.41L963.114 192.6H962.514L964.714 252H957.914ZM1087.44 243.4L1086.84 249.5C1084.97 250.3 1082.71 251 1080.04 251.6C1077.37 252.2 1074.67 252.633 1071.94 252.9C1069.21 253.233 1066.77 253.4 1064.64 253.4C1059.24 253.4 1054.24 252.5 1049.64 250.7C1045.04 248.833 1041.01 246.267 1037.54 243C1034.14 239.733 1031.47 235.9 1029.54 231.5C1027.61 227.033 1026.64 222.2 1026.64 217C1026.64 211.8 1027.61 207 1029.54 202.6C1031.47 198.133 1034.14 194.267 1037.54 191C1041.01 187.733 1045.04 185.2 1049.64 183.4C1054.24 181.533 1059.24 180.6 1064.64 180.6C1066.84 180.6 1069.31 180.767 1072.04 181.1C1074.77 181.433 1077.44 181.9 1080.04 182.5C1082.64 183.033 1084.84 183.667 1086.64 184.4L1086.14 190H1085.54C1083.07 187.733 1079.97 186 1076.24 184.8C1072.51 183.6 1068.64 183 1064.64 183C1058.64 183 1053.34 184.433 1048.74 187.3C1044.21 190.1 1040.64 194.067 1038.04 199.2C1035.51 204.267 1034.24 210.2 1034.24 217C1034.24 223.867 1035.51 229.833 1038.04 234.9C1040.64 239.967 1044.21 243.933 1048.74 246.8C1053.27 249.6 1058.57 251 1064.64 251C1069.17 251 1073.37 250.267 1077.24 248.8C1081.17 247.333 1084.37 245.533 1086.84 243.4H1087.44ZM1097.42 252V182H1127.92V186.9L1110.42 184.6C1107.36 184.2 1105.29 184 1104.22 184V214.5C1105.09 214.5 1107.16 214.4 1110.42 214.2L1126.82 213.2V217.8L1110.42 216.8C1107.16 216.6 1105.09 216.5 1104.22 216.5V250C1105.42 250 1107.52 249.8 1110.52 249.4L1128.22 247.1V252H1097.42ZM1134.18 247.8C1134.18 246.267 1134.68 245.033 1135.68 244.1C1136.68 243.1 1137.91 242.6 1139.38 242.6C1140.91 242.6 1142.15 243.1 1143.08 244.1C1144.08 245.033 1144.58 246.267 1144.58 247.8C1144.58 249.267 1144.08 250.5 1143.08 251.5C1142.15 252.5 1140.91 253 1139.38 253C1137.91 253 1136.68 252.5 1135.68 251.5C1134.68 250.5 1134.18 249.267 1134.18 247.8Z" fill="white"/>
</svg>
