<svg xmlns="http://www.w3.org/2000/svg" width="50" height="50" viewBox="0 0 50 50" fill="none">
  <path d="M30.5961 23.9844L13.3008 20.9375V43.4516C13.3006 43.6963 13.3487 43.9386 13.4423 44.1647C13.536 44.3908 13.6733 44.5961 13.8465 44.769C14.0197 44.9419 14.2253 45.0789 14.4515 45.1722C14.6777 45.2654 14.9201 45.3131 15.1648 45.3125H45.0086C45.2536 45.3135 45.4963 45.2661 45.7229 45.1731C45.9495 45.08 46.1555 44.943 46.329 44.7701C46.5025 44.5972 46.6401 44.3917 46.734 44.1654C46.8278 43.9391 46.876 43.6965 46.8758 43.4516V35.1563L30.5961 23.9844Z" fill="#185C37"/>
  <path d="M30.5961 4.68751H15.1648C14.9201 4.68689 14.6777 4.73458 14.4515 4.82784C14.2253 4.92111 14.0197 5.05811 13.8465 5.231C13.6733 5.40388 13.536 5.60925 13.4423 5.83533C13.3487 6.0614 13.3006 6.30374 13.3008 6.54844V14.8438L30.5961 25L39.7539 28.0469L46.8758 25V14.8438L30.5961 4.68751Z" fill="#21A366"/>
  <path d="M13.3008 14.8438H30.5961V25H13.3008V14.8438Z" fill="#107C41"/>
  <path opacity="0.1" d="M25.6789 12.8125H13.3008V38.2031H25.6789C26.1721 38.2007 26.6445 38.004 26.9937 37.6556C27.3429 37.3073 27.5408 36.8354 27.5445 36.3422V14.6734C27.5408 14.1802 27.3429 13.7083 26.9937 13.36C26.6445 13.0117 26.1721 12.815 25.6789 12.8125Z" fill="black"/>
  <path opacity="0.2" d="M24.6617 13.8281H13.3008V39.2188H24.6617C25.1549 39.2163 25.6273 39.0196 25.9766 38.6713C26.3258 38.3229 26.5236 37.851 26.5273 37.3578V15.6891C26.5236 15.1958 26.3258 14.7239 25.9766 14.3756C25.6273 14.0273 25.1549 13.8306 24.6617 13.8281Z" fill="black"/>
  <path opacity="0.2" d="M24.6617 13.8281H13.3008V37.1875H24.6617C25.1549 37.185 25.6273 36.9883 25.9766 36.64C26.3258 36.2917 26.5236 35.8198 26.5273 35.3266V15.6891C26.5236 15.1958 26.3258 14.7239 25.9766 14.3756C25.6273 14.0273 25.1549 13.8306 24.6617 13.8281Z" fill="black"/>
  <path opacity="0.2" d="M23.6445 13.8281H13.3008V37.1875H23.6445C24.1378 37.185 24.6102 36.9883 24.9594 36.64C25.3086 36.2917 25.5065 35.8198 25.5102 35.3266V15.6891C25.5065 15.1958 25.3086 14.7239 24.9594 14.3756C24.6102 14.0273 24.1378 13.8306 23.6445 13.8281Z" fill="black"/>
  <path d="M4.99063 13.8281H23.6437C24.1379 13.8277 24.6119 14.0235 24.9617 14.3724C25.3116 14.7214 25.5085 15.195 25.5094 15.6891V34.3109C25.5085 34.8051 25.3116 35.2786 24.9617 35.6276C24.6119 35.9765 24.1379 36.1723 23.6437 36.1719H4.99063C4.74579 36.1727 4.50321 36.1252 4.27679 36.032C4.05038 35.9388 3.8446 35.8019 3.67125 35.6289C3.49791 35.456 3.36042 35.2506 3.26668 35.0244C3.17294 34.7982 3.12479 34.5558 3.125 34.3109V15.6891C3.12479 15.4442 3.17294 15.2018 3.26668 14.9756C3.36042 14.7494 3.49791 14.544 3.67125 14.3711C3.8446 14.1982 4.05038 14.0612 4.27679 13.968C4.50321 13.8749 4.74579 13.8273 4.99063 13.8281Z" fill="url(#paint0_linear_443_9934)"/>
  <path d="M8.90625 31.0514L12.8297 24.9826L9.23594 18.9482H12.1219L14.0828 22.8123C14.2641 23.1779 14.3953 23.4498 14.4547 23.6311H14.4812C14.6094 23.3383 14.7448 23.054 14.8875 22.7779L16.9844 18.9545H19.6406L15.9547 24.9545L19.7344 31.0561H16.9078L14.6422 26.8201C14.5373 26.6378 14.4479 26.4471 14.375 26.2498H14.3375C14.2713 26.4421 14.1832 26.6261 14.075 26.7982L11.7422 31.0514H8.90625Z" fill="white"/>
  <path d="M45.0098 4.68751H30.5957V14.8438H46.8754V6.54845C46.8756 6.30361 46.8274 6.06115 46.7337 5.83497C46.64 5.60879 46.5025 5.40335 46.3291 5.23045C46.1558 5.05754 45.95 4.92057 45.7236 4.8274C45.4972 4.73423 45.2546 4.68669 45.0098 4.68751Z" fill="#33C481"/>
  <path d="M30.5957 25H46.8754V35.1562H30.5957V25Z" fill="#107C41"/>
  <defs>
    <linearGradient id="paint0_linear_443_9934" x1="7.02188" y1="12.3656" x2="21.6125" y2="37.6344" gradientUnits="userSpaceOnUse">
      <stop stop-color="#18884F"/>
      <stop offset="0.5" stop-color="#117E43"/>
      <stop offset="1" stop-color="#0B6631"/>
    </linearGradient>
  </defs>
</svg>