<svg xmlns="http://www.w3.org/2000/svg" width="40" height="40" viewBox="0 0 40 40" fill="none">
  <path d="M19 6V14H6V12C6 10.4087 6.63214 8.88258 7.75736 7.75736C8.88258 6.63214 10.4087 6 12 6H19ZM21 6V24H34V12C34 10.4087 33.3679 8.88258 32.2426 7.75736C31.1174 6.63214 29.5913 6 28 6H21ZM34 26H21V34H28C29.5913 34 31.1174 33.3679 32.2426 32.2426C33.3679 31.1174 34 29.5913 34 28V26ZM19 34V16H6V28C6 29.5913 6.63214 31.1174 7.75736 32.2426C8.88258 33.3679 10.4087 34 12 34H19Z" fill="white"/>
</svg>