<svg xmlns="http://www.w3.org/2000/svg" width="133" height="132" viewBox="0 0 133 132" fill="none">
  <path d="M66.5 8.25C81.8163 8.25 96.5052 14.3344 107.335 25.1646C118.166 35.9948 124.25 50.6837 124.25 66C124.25 81.3163 118.166 96.0052 107.335 106.835C96.5052 117.666 81.8163 123.75 66.5 123.75C51.1837 123.75 36.4948 117.666 25.6646 106.835C14.8344 96.0052 8.75 81.3163 8.75 66C8.75 50.6837 14.8344 35.9948 25.6646 25.1646C36.4948 14.3344 51.1837 8.25 66.5 8.25ZM59.306 77.3932L46.4772 64.5562C46.0173 64.0963 45.4714 63.7315 44.8705 63.4826C44.2696 63.2337 43.6255 63.1056 42.9751 63.1056C42.3247 63.1056 41.6807 63.2337 41.0798 63.4826C40.4789 63.7315 39.9329 64.0963 39.473 64.5562C38.5442 65.4851 38.0224 66.7448 38.0224 68.0584C38.0224 69.3719 38.5442 70.6317 39.473 71.5605L55.808 87.8955C56.2666 88.3577 56.8122 88.7246 57.4132 88.975C58.0143 89.2254 58.659 89.3543 59.3101 89.3543C59.9613 89.3543 60.6059 89.2254 61.207 88.975C61.8081 88.7246 62.3537 88.3577 62.8122 87.8955L96.6373 54.0622C97.1033 53.6043 97.4741 53.0585 97.7281 52.4565C97.9822 51.8545 98.1146 51.2081 98.1176 50.5547C98.1207 49.9013 97.9943 49.2538 97.7458 48.6494C97.4974 48.0451 97.1317 47.4959 96.6699 47.0336C96.2082 46.5713 95.6594 46.205 95.0554 45.9558C94.4513 45.7066 93.8039 45.5795 93.1505 45.5817C92.4971 45.584 91.8506 45.7156 91.2483 45.969C90.646 46.2224 90.0998 46.5925 89.6413 47.058L59.306 77.3932Z" fill="#092666"/>
</svg>