<svg xmlns="http://www.w3.org/2000/svg" width="35" height="35" viewBox="0 0 35 35" fill="none">
  <path d="M13.125 29.75C12.8929 29.75 12.6704 29.6578 12.5063 29.4937C12.3422 29.3296 12.25 29.1071 12.25 28.875C12.25 28.6429 12.3422 28.4204 12.5063 28.2563C12.6704 28.0922 12.8929 28 13.125 28H24.5C25.4283 28 26.3185 27.6313 26.9749 26.9749C27.6313 26.3185 28 25.4283 28 24.5V10.5C28 9.57174 27.6313 8.6815 26.9749 8.02513C26.3185 7.36875 25.4283 7 24.5 7H13.125C12.8929 7 12.6704 6.90781 12.5063 6.74372C12.3422 6.57962 12.25 6.35706 12.25 6.125C12.25 5.89294 12.3422 5.67038 12.5063 5.50628C12.6704 5.34219 12.8929 5.25 13.125 5.25H24.5C25.8924 5.25 27.2277 5.80312 28.2123 6.78769C29.1969 7.77226 29.75 9.10761 29.75 10.5V24.5C29.75 25.8924 29.1969 27.2277 28.2123 28.2123C27.2277 29.1969 25.8924 29.75 24.5 29.75H13.125ZM13.3805 10.7555C13.4618 10.674 13.5583 10.6094 13.6646 10.5653C13.7709 10.5211 13.8849 10.4984 14 10.4984C14.1151 10.4984 14.2291 10.5211 14.3354 10.5653C14.4417 10.6094 14.5382 10.674 14.6195 10.7555L20.7445 16.8805C20.826 16.9618 20.8906 17.0583 20.9347 17.1646C20.9789 17.2709 21.0016 17.3849 21.0016 17.5C21.0016 17.6151 20.9789 17.7291 20.9347 17.8354C20.8906 17.9417 20.826 18.0382 20.7445 18.1195L14.6195 24.2445C14.4552 24.4088 14.2324 24.5011 14 24.5011C13.7676 24.5011 13.5448 24.4088 13.3805 24.2445C13.2162 24.0802 13.1239 23.8574 13.1239 23.625C13.1239 23.3926 13.2162 23.1698 13.3805 23.0055L18.0128 18.375H2.625C2.39294 18.375 2.17038 18.2828 2.00628 18.1187C1.84219 17.9546 1.75 17.7321 1.75 17.5C1.75 17.2679 1.84219 17.0454 2.00628 16.8813C2.17038 16.7172 2.39294 16.625 2.625 16.625H18.0128L13.3805 11.9945C13.299 11.9132 13.2344 11.8167 13.1903 11.7104C13.1461 11.6041 13.1234 11.4901 13.1234 11.375C13.1234 11.2599 13.1461 11.1459 13.1903 11.0396C13.2344 10.9333 13.299 10.8368 13.3805 10.7555Z" fill="black"/>
</svg>