<svg xmlns="http://www.w3.org/2000/svg" width="28" height="28" viewBox="0 0 28 28" fill="none">
  <path d="M6.49025 0.1875C5.30025 0.1875 4.30008 0.1875 3.50675 0.29375C2.66525 0.407083 1.896 0.657833 1.27692 1.27692C0.657833 1.896 0.407083 2.66525 0.29375 3.50675C0.1875 4.30008 0.1875 5.30025 0.1875 6.49025V6.63333C0.1875 7.82333 0.1875 8.8235 0.29375 9.61683C0.407083 10.4583 0.657833 11.2276 1.27692 11.8467C1.896 12.4657 2.66525 12.7165 3.50675 12.8298C4.30008 12.9361 5.30025 12.9361 6.49025 12.9361H6.63333C7.82333 12.9361 8.8235 12.9361 9.61683 12.8298C10.4583 12.7165 11.2276 12.4657 11.8467 11.8467C12.4657 11.2276 12.7165 10.4583 12.8298 9.61683C12.9361 8.8235 12.9361 7.82333 12.9361 6.63333V6.49167C12.9361 5.30167 12.9361 4.3015 12.8298 3.50817C12.7165 2.66667 12.4657 1.89742 11.8467 1.27833C11.2276 0.65925 10.4583 0.4085 9.61683 0.295167C8.8235 0.188917 7.82333 0.188917 6.63333 0.188917L6.49025 0.1875ZM21.3652 0.1875C20.1752 0.1875 19.1751 0.1875 18.3818 0.29375C17.5403 0.407083 16.771 0.657833 16.1519 1.27692C15.5328 1.896 15.2821 2.66525 15.1687 3.50675C15.0625 4.30008 15.0625 5.30025 15.0625 6.49025V6.63333C15.0625 7.82333 15.0625 8.8235 15.1687 9.61683C15.2821 10.4583 15.5328 11.2276 16.1519 11.8467C16.771 12.4657 17.5403 12.7165 18.3818 12.8298C19.1751 12.9361 20.1752 12.9361 21.3652 12.9361H21.5098C22.6998 12.9361 23.6999 12.9361 24.4932 12.8298C25.3347 12.7165 26.104 12.4657 26.7231 11.8467C27.3422 11.2276 27.5929 10.4583 27.7062 9.61683C27.8125 8.8235 27.8125 7.82333 27.8125 6.63333V6.49167C27.8125 5.30167 27.8125 4.3015 27.7062 3.50817C27.5929 2.66667 27.3422 1.89742 26.7231 1.27833C26.104 0.65925 25.3347 0.4085 24.4932 0.295167C23.6999 0.188917 22.7012 0.188917 21.5112 0.188917L21.3652 0.1875ZM6.49025 15.0724C5.30025 15.0724 4.30008 15.0724 3.50675 15.1787C2.66525 15.292 1.896 15.5427 1.27692 16.1618C0.657833 16.7809 0.407083 17.5502 0.29375 18.3917C0.1875 19.185 0.1875 20.1852 0.1875 21.3752V21.5197C0.1875 22.7097 0.1875 23.7098 0.29375 24.5032C0.407083 25.3447 0.657833 26.1139 1.27692 26.733C1.896 27.3521 2.66525 27.6028 3.50675 27.7162C4.30008 27.8224 5.30025 27.8224 6.49025 27.8224H6.63333C7.82333 27.8224 8.8235 27.8224 9.61683 27.7162C10.4583 27.6028 11.2276 27.3521 11.8467 26.733C12.4657 26.1139 12.7165 25.3447 12.8298 24.5032C12.9361 23.7098 12.9361 22.7097 12.9361 21.5197V21.3752C12.9361 20.1852 12.9361 19.1864 12.8298 18.3917C12.7165 17.5502 12.4657 16.7809 11.8467 16.1618C11.2276 15.5427 10.4583 15.292 9.61683 15.1787C8.8235 15.0724 7.82333 15.0724 6.63333 15.0724H6.49025ZM21.3652 15.0724C20.1752 15.0724 19.1751 15.0724 18.3818 15.1787C17.5403 15.292 16.771 15.5427 16.1519 16.1618C15.5328 16.7809 15.2821 17.5502 15.1687 18.3917C15.0625 19.185 15.0625 20.1852 15.0625 21.3752V21.5197C15.0625 22.7097 15.0625 23.7098 15.1687 24.5032C15.2821 25.3447 15.5328 26.1139 16.1519 26.733C16.771 27.3521 17.5403 27.6028 18.3818 27.7162C19.1751 27.8224 20.1752 27.8224 21.3652 27.8224H21.5098C22.6998 27.8224 23.6999 27.8224 24.4932 27.7162C25.3347 27.6028 26.104 27.3521 26.7231 26.733C27.3422 26.1139 27.5929 25.3447 27.7062 24.5032C27.8125 23.7098 27.8125 22.7097 27.8125 21.5197V21.3752C27.8125 20.1852 27.8125 19.1864 27.7062 18.3917C27.5929 17.5502 27.3422 16.7809 26.7231 16.1618C26.104 15.5427 25.3347 15.292 24.4932 15.1787C23.6999 15.0724 22.6997 15.0724 21.5112 15.0724H21.3652Z" fill="white"/>
</svg>