<svg xmlns="http://www.w3.org/2000/svg" width="24" height="24" viewBox="0 0 24 25" fill="none">
  <path fill-rule="evenodd" clip-rule="evenodd" d="M19.4336 2.33384C19.5836 2.18386 19.7871 2.09961 19.9992 2.09961C20.2113 2.09961 20.4148 2.18386 20.5648 2.33384L23.7648 5.53384C23.8393 5.60815 23.8984 5.69643 23.9388 5.79362C23.9791 5.89082 23.9998 5.99501 23.9998 6.10024C23.9998 6.20547 23.9791 6.30966 23.9388 6.40685C23.8984 6.50405 23.8393 6.59233 23.7648 6.66664L17.4576 12.9738C17.336 13.0958 17.1956 13.1974 17.0416 13.2746L10.7584 16.4154C10.6084 16.4903 10.4386 16.5162 10.273 16.4893C10.1075 16.4625 9.95454 16.3843 9.83587 16.2658C9.71719 16.1473 9.63875 15.9945 9.61165 15.829C9.58454 15.6634 9.61014 15.4936 9.68481 15.3434L12.8256 9.05864C12.9028 8.90469 13.0044 8.76421 13.1264 8.64264L19.4336 2.33384ZM20 4.03144L14.256 9.77544L12.5968 13.097L13.0032 13.5034L16.3264 11.8426L22.0688 6.10024L20 4.03144ZM16 3.70024L14.4 5.30024H7.84001C7.15521 5.30024 6.68801 5.30024 6.32961 5.33064C5.97761 5.35944 5.79841 5.41064 5.67361 5.47464C5.37257 5.62803 5.12781 5.87279 4.97441 6.17384C4.91041 6.29864 4.85921 6.47784 4.83041 6.82984C4.80001 7.18824 4.80001 7.65544 4.80001 8.34024V18.2602C4.80001 18.945 4.80001 19.4122 4.83041 19.7706C4.85921 20.1226 4.91041 20.3018 4.97441 20.4266C5.12781 20.7277 5.37257 20.9724 5.67361 21.1258C5.79841 21.1898 5.97761 21.241 6.32961 21.2698C6.68961 21.3002 7.15521 21.3002 7.84001 21.3002H17.76C18.4448 21.3002 18.912 21.3002 19.2704 21.2698C19.6224 21.241 19.8016 21.1898 19.9264 21.1258C20.2275 20.9724 20.4722 20.7277 20.6256 20.4266C20.6896 20.3018 20.7408 20.1226 20.7696 19.7706C20.8 19.4106 20.8 18.945 20.8 18.2602V11.7002L22.4 10.1002V18.2922C22.4 18.937 22.4 19.4682 22.3648 19.9018C22.328 20.3514 22.2496 20.7658 22.0512 21.153C21.7444 21.7551 21.2549 22.2446 20.6528 22.5514C20.264 22.7498 19.8512 22.8282 19.4016 22.865C18.9696 22.9002 18.4368 22.9002 17.7936 22.9002H7.80801C7.16321 22.9002 6.63201 22.9002 6.19841 22.865C5.74881 22.8282 5.33441 22.7498 4.94721 22.5514C4.34512 22.2446 3.8556 21.7551 3.54881 21.153C3.35041 20.7642 3.27201 20.3514 3.23521 19.9018C3.20001 19.4698 3.20001 18.937 3.20001 18.2922V8.30824C3.20001 7.66344 3.20001 7.13224 3.23521 6.69864C3.27201 6.24904 3.35041 5.83464 3.54881 5.44744C3.8556 4.84535 4.34512 4.35583 4.94721 4.04904C5.33601 3.85064 5.74881 3.77224 6.19841 3.73544C6.63041 3.70024 7.16321 3.70024 7.80801 3.70024H16Z" fill="white"/>
</svg>