<svg xmlns="http://www.w3.org/2000/svg" width="44" height="44" viewBox="0 0 44 44" fill="none">
  <path d="M22 3.66666C23.813 3.66666 25.5853 4.20427 27.0927 5.21152C28.6002 6.21876 29.7751 7.6504 30.4689 9.32539C31.1627 11.0004 31.3442 12.8435 30.9905 14.6217C30.6368 16.3998 29.7638 18.0332 28.4818 19.3151C27.1998 20.5971 25.5665 21.4702 23.7883 21.8239C22.0102 22.1776 20.1671 21.996 18.4921 21.3022C16.8171 20.6084 15.3854 19.4335 14.3782 17.9261C13.3709 16.4186 12.8333 14.6463 12.8333 12.8333L12.8425 12.4355C12.945 10.0755 13.9546 7.84625 15.6607 6.21253C17.3669 4.57882 19.6378 3.66679 22 3.66666ZM25.6667 25.6667C28.0978 25.6667 30.4294 26.6324 32.1485 28.3515C33.8676 30.0706 34.8333 32.4022 34.8333 34.8333V36.6667C34.8333 37.6391 34.447 38.5717 33.7594 39.2594C33.0718 39.947 32.1391 40.3333 31.1667 40.3333H12.8333C11.8609 40.3333 10.9282 39.947 10.2406 39.2594C9.55297 38.5717 9.16666 37.6391 9.16666 36.6667V34.8333C9.16666 32.4022 10.1324 30.0706 11.8515 28.3515C13.5706 26.6324 15.9022 25.6667 18.3333 25.6667H25.6667Z" fill="#7C7C7B"/>
</svg>