<svg xmlns="http://www.w3.org/2000/svg" width="16" height="16" viewBox="0 0 16 16" fill="none">
  <path d="M8.00001 11.3333C8.35363 11.3333 8.69277 11.4738 8.94281 11.7239C9.19286 11.9739 9.33334 12.313 9.33334 12.6667C9.33334 13.0203 9.19286 13.3594 8.94281 13.6095C8.69277 13.8595 8.35363 14 8.00001 14C7.64638 14 7.30724 13.8595 7.0572 13.6095C6.80715 13.3594 6.66667 13.0203 6.66667 12.6667C6.66667 12.313 6.80715 11.9739 7.0572 11.7239C7.30724 11.4738 7.64638 11.3333 8.00001 11.3333ZM8.00001 6.66667C8.35363 6.66667 8.69277 6.80714 8.94281 7.05719C9.19286 7.30724 9.33334 7.64638 9.33334 8C9.33334 8.35362 9.19286 8.69276 8.94281 8.94281C8.69277 9.19286 8.35363 9.33333 8.00001 9.33333C7.64638 9.33333 7.30724 9.19286 7.0572 8.94281C6.80715 8.69276 6.66667 8.35362 6.66667 8C6.66667 7.64638 6.80715 7.30724 7.0572 7.05719C7.30724 6.80714 7.64638 6.66667 8.00001 6.66667ZM8.00001 2C8.35363 2 8.69277 2.14048 8.94281 2.39052C9.19286 2.64057 9.33334 2.97971 9.33334 3.33333C9.33334 3.68696 9.19286 4.02609 8.94281 4.27614C8.69277 4.52619 8.35363 4.66667 8.00001 4.66667C7.64638 4.66667 7.30724 4.52619 7.0572 4.27614C6.80715 4.02609 6.66667 3.68696 6.66667 3.33333C6.66667 2.97971 6.80715 2.64057 7.0572 2.39052C7.30724 2.14048 7.64638 2 8.00001 2Z" fill="#092666"/>
</svg>