<svg xmlns="http://www.w3.org/2000/svg" width="44" height="44" viewBox="0 0 44 44" fill="none">
  <path d="M22 31.1667C22.9725 31.1667 23.9051 30.7804 24.5927 30.0927C25.2804 29.4051 25.6667 28.4725 25.6667 27.5C25.6667 26.5275 25.2804 25.5949 24.5927 24.9073C23.9051 24.2197 22.9725 23.8333 22 23.8333C21.0275 23.8333 20.0949 24.2197 19.4073 24.9073C18.7196 25.5949 18.3333 26.5275 18.3333 27.5C18.3333 28.4725 18.7196 29.4051 19.4073 30.0927C20.0949 30.7804 21.0275 31.1667 22 31.1667ZM33 14.6667C33.9725 14.6667 34.9051 15.053 35.5927 15.7406C36.2804 16.4283 36.6667 17.3609 36.6667 18.3333V36.6667C36.6667 37.6391 36.2804 38.5718 35.5927 39.2594C34.9051 39.947 33.9725 40.3333 33 40.3333H11C10.0275 40.3333 9.09491 39.947 8.40728 39.2594C7.71964 38.5718 7.33334 37.6391 7.33334 36.6667V18.3333C7.33334 17.3609 7.71964 16.4283 8.40728 15.7406C9.09491 15.053 10.0275 14.6667 11 14.6667H12.8333V11C12.8333 8.56886 13.7991 6.23728 15.5182 4.5182C17.2373 2.79911 19.5689 1.83334 22 1.83334C23.2038 1.83334 24.3958 2.07045 25.5079 2.53111C26.6201 2.99178 27.6306 3.66699 28.4818 4.5182C29.333 5.3694 30.0082 6.37993 30.4689 7.49208C30.9296 8.60423 31.1667 9.79623 31.1667 11V14.6667H33ZM22 5.50001C20.5413 5.50001 19.1424 6.07947 18.1109 7.11092C17.0795 8.14237 16.5 9.54132 16.5 11V14.6667H27.5V11C27.5 9.54132 26.9205 8.14237 25.8891 7.11092C24.8576 6.07947 23.4587 5.50001 22 5.50001Z" fill="#7C7C7B"/>
</svg>