<svg xmlns="http://www.w3.org/2000/svg" width="60" height="60" viewBox="0 0 60 60" fill="none">
  <path d="M52.5 30.0002C52.5071 34.467 51.1786 38.834 48.685 42.5402C46.6286 45.6077 43.8479 48.1212 40.5889 49.8584C37.3299 51.5956 33.6931 52.5029 30 52.5002C26.3069 52.5029 22.6701 51.5956 19.4111 49.8584C16.1521 48.1212 13.3715 45.6077 11.315 42.5402C9.35683 39.6212 8.10976 36.2841 7.67376 32.7963C7.23777 29.3085 7.62499 25.767 8.80437 22.4559C9.98375 19.1447 11.9225 16.1559 14.4652 13.729C17.0078 11.3022 20.0837 9.50482 23.4463 8.481C26.8088 7.45718 30.3644 7.23539 33.8281 7.83342C37.2918 8.43144 40.5672 9.83265 43.3918 11.9247C46.2163 14.0168 48.5114 16.7415 50.0932 19.8804C51.6749 23.0194 52.4992 26.4852 52.5 30.0002Z" stroke="white" stroke-width="2.5"/>
  <path d="M33.125 22.5C33.125 24.225 31.725 25.625 30 25.625V29.375C31.8234 29.375 33.5721 28.6507 34.8614 27.3614C36.1507 26.072 36.875 24.3234 36.875 22.5H33.125ZM30 25.625C28.275 25.625 26.875 24.225 26.875 22.5H23.125C23.125 24.3234 23.8493 26.072 25.1387 27.3614C26.428 28.6507 28.1766 29.375 30 29.375V25.625ZM26.875 22.5C26.875 20.775 28.275 19.375 30 19.375V15.625C28.1766 15.625 26.428 16.3493 25.1387 17.6386C23.8493 18.928 23.125 20.6766 23.125 22.5H26.875ZM30 19.375C31.725 19.375 33.125 20.775 33.125 22.5H36.875C36.875 20.6766 36.1507 18.928 34.8614 17.6386C33.5721 16.3493 31.8234 15.625 30 15.625V19.375ZM12.915 44.64L11.1175 44.105L10.825 45.085L11.4925 45.86L12.915 44.64ZM47.085 44.64L48.51 45.8625L49.175 45.0875L48.8825 44.105L47.085 44.64ZM22.5 39.375H37.5V35.625H22.5V39.375ZM22.5 35.625C19.9426 35.6243 17.4532 36.4493 15.4024 37.9772C13.3515 39.5051 11.8487 41.6543 11.1175 44.105L14.7125 45.175C15.2131 43.4987 16.2414 42.0287 17.6445 40.9837C19.0476 39.9387 20.7505 39.3745 22.5 39.375V35.625ZM30 50.625C27.0236 50.6284 24.0818 49.986 21.3777 48.7421C18.6737 47.4982 16.2717 45.6824 14.3375 43.42L11.4925 45.86C13.7787 48.5324 16.6171 50.6799 19.8122 52.1495C23.0073 53.6191 26.4831 54.3783 30 54.375V50.625ZM37.5 39.375C41.175 39.375 44.2875 41.82 45.2875 45.175L48.8825 44.105C48.1513 41.6543 46.6485 39.5051 44.5977 37.9772C42.5468 36.4493 40.0575 35.6243 37.5 35.625V39.375ZM45.6625 43.42C43.7284 45.6824 41.3264 47.4982 38.6223 48.7421C35.9182 49.986 32.9765 50.6284 30 50.625V54.375C33.5169 54.3783 36.9927 53.6191 40.1878 52.1495C43.3829 50.6799 46.2239 48.5349 48.51 45.8625L45.6625 43.42Z" fill="white"/>
</svg>