<svg xmlns="http://www.w3.org/2000/svg" width="50" height="51" viewBox="0 0 50 51" fill="none">
  <path fill-rule="evenodd" clip-rule="evenodd" d="M25 44.25C27.4623 44.25 29.9005 43.765 32.1753 42.8227C34.4502 41.8805 36.5172 40.4993 38.2583 38.7583C39.9993 37.0172 41.3805 34.9502 42.3227 32.6753C43.265 30.4005 43.75 27.9623 43.75 25.5C43.75 23.0377 43.265 20.5995 42.3227 18.3247C41.3805 16.0498 39.9993 13.9828 38.2583 12.2417C36.5172 10.5006 34.4502 9.11953 32.1753 8.17726C29.9005 7.23498 27.4623 6.75 25 6.75C20.0272 6.75 15.2581 8.72544 11.7417 12.2417C8.22544 15.7581 6.25 20.5272 6.25 25.5C6.25 30.4728 8.22544 35.2419 11.7417 38.7583C15.2581 42.2746 20.0272 44.25 25 44.25ZM24.5167 33.0833L34.9333 20.5833L31.7333 17.9167L22.775 28.6646L18.1396 24.0271L15.1938 26.9729L21.4437 33.2229L23.0562 34.8354L24.5167 33.0833Z" fill="#16A34A"/>
</svg>