<svg xmlns="http://www.w3.org/2000/svg" width="40" height="40" viewBox="0 0 40 40" fill="none">
  <g clip-path="url(#clip0_332_3278)">
    <path d="M17.5 12.5H7.5C5.51088 12.5 3.60322 13.2902 2.1967 14.6967C0.790176 16.1032 0 18.0109 0 20C0 21.9891 0.790176 23.8968 2.1967 25.3033C3.60322 26.7098 5.51088 27.5 7.5 27.5H17.5C16.9181 26.726 16.4282 25.8871 16.04 25H7.5C6.17392 25 4.90215 24.4732 3.96447 23.5355C3.02678 22.5979 2.5 21.3261 2.5 20C2.5 18.6739 3.02678 17.4021 3.96447 16.4645C4.90215 15.5268 6.17392 15 7.5 15H16.04C16.4317 14.105 16.9183 13.2717 17.5 12.5Z" fill="white"/>
    <path d="M40 20C40 23.3152 38.683 26.4946 36.3388 28.8388C33.9946 31.183 30.8152 32.5 27.5 32.5C24.1848 32.5 21.0054 31.183 18.6612 28.8388C16.317 26.4946 15 23.3152 15 20C15 16.6848 16.317 13.5054 18.6612 11.1612C21.0054 8.81696 24.1848 7.5 27.5 7.5C30.8152 7.5 33.9946 8.81696 36.3388 11.1612C38.683 13.5054 40 16.6848 40 20Z" fill="white"/>
  </g>
  <defs>
    <clipPath id="clip0_332_3278">
      <rect width="40" height="40" fill="white"/>
    </clipPath>
  </defs>
</svg>